<svg width="125" height="71" viewBox="0 0 125 71" fill="none" xmlns="http://www.w3.org/2000/svg">
<path d="M69.8502 44.0232C69.0607 44.6226 67.7302 44.2279 67.7448 43.1313C66.3558 45.4414 63.5486 43.9939 64.1773 42.0055L65.6833 37.3707C66.1804 35.894 67.1892 35.2653 68.6367 35.2653C69.2946 35.2653 69.7478 35.5724 70.0256 35.8794C72.014 29.7533 72.131 29.4317 72.2626 28.9492C72.3357 28.7299 71.8678 28.8907 71.8532 28.6714C71.8532 28.5983 72.8621 27.6041 73.6223 27.6041C74.8505 27.6041 74.3095 28.686 73.9732 29.7095L69.8063 42.5611C69.3677 43.8916 69.6016 43.8916 69.8502 44.0232ZM69.7625 36.6251C69.5285 35.8648 68.3296 35.47 67.6424 37.3561C66.1365 42.0055 65.5371 43.1459 66.4143 43.1459C67.4816 43.1459 68.3589 40.9674 68.3589 40.9674L69.7625 36.6251Z" fill="#FAFAFA"/>
<path d="M79.6314 37.0198L79.032 38.862C78.6957 39.8855 76.4003 41.6107 74.5288 41.0113C74.134 42.2248 73.4322 43.8331 74.9382 43.8331C76.0347 43.8331 76.5026 42.1517 76.6781 41.6546C76.7365 41.5376 76.8827 41.3914 77.0143 41.4499C77.2921 41.5376 78.0378 42.1078 77.9501 42.3125C77.4676 43.3067 76.2833 44.3156 74.3241 44.3156C71.7801 44.3156 71.9848 42.795 72.248 42.0201L73.7685 37.3707C74.8066 34.2126 80.304 34.9437 79.6314 37.0198ZM77.2044 36.011C75.9032 36.011 75.6546 37.5608 74.6896 40.5434C75.4207 40.7627 76.7512 40.0609 77.1021 38.862C77.7161 36.9175 78.2132 36.011 77.2044 36.011Z" fill="#FAFAFA"/>
<path d="M98.8434 30.7182C98.9165 27.9549 92.0009 28.6128 89.2522 35.2214C85.2461 44.7688 95.7 45.0173 96.9573 38.8474C95.9485 38.7158 95.2906 39.0228 94.9689 39.1252C94.5742 39.2568 94.6473 38.3503 94.9543 38.1456C95.276 37.9555 96.124 37.5169 97.4545 37.6631C99.1066 37.8678 99.6183 37.5315 99.9107 37.473C100.598 37.3414 100.525 37.6923 100.466 37.9555C100.232 39.0374 99.8669 39.1252 99.0774 39.1544C97.7907 43.0728 97.6153 43.219 97.9516 43.9793C98.01 44.1401 97.6738 44.2863 97.4983 44.257C96.5918 44.0816 95.9924 43.7015 96.0655 42.9119C91.8986 46.187 83.4624 43.7015 87.103 35.2507C90.5535 27.2677 101.768 26.3466 100.598 31.0253C100.203 32.5751 99.0774 32.4727 98.668 32.2388C98.3025 32.0049 98.8142 31.7709 98.8434 30.7182Z" fill="#FAFAFA"/>
<path d="M109.444 36.1133C108.61 36.318 108.756 36.508 106.783 42.561C106.344 43.8769 106.578 43.8769 106.827 44.0231C106.037 44.6226 104.765 44.2132 104.721 43.2043C103.318 45.4121 100.554 43.9793 101.198 42.0055L102.703 37.3707C103.201 35.894 104.209 35.2653 105.657 35.2653C106.388 35.2653 106.841 35.6454 107.119 35.9817C107.938 34.8413 109.268 35.1483 109.444 36.1133ZM106.783 36.5958C106.68 36.3034 106.446 36.0109 105.905 36.0109C104.853 36.0109 104.502 37.8532 103.157 42.0055C102.557 43.9208 104.399 43.4237 105.335 40.982C106.607 37.0636 106.636 37.0052 106.783 36.5958Z" fill="#FAFAFA"/>
<path d="M116.359 37.0051L114.005 44.3009C113.567 45.9384 111.724 51.1142 106.973 51.1142C103.127 51.1142 104.677 46.5379 109.254 45.6606C109.912 45.529 110.467 45.4413 110.657 45.4998C110.833 45.5583 110.891 45.7337 110.774 45.9238C110.672 46.0992 110.496 46.2016 110.233 46.2162C110.058 46.2308 109.751 46.0846 109.604 46.0846C108.084 46.5671 107.192 47.459 106.549 48.7602C106.066 49.7544 105.949 50.6024 106.958 50.6024C109.912 50.6024 111.286 46.7718 112.046 44.3009L112.587 42.6487C110.452 45.5875 108.186 44.1108 108.917 42.1663L110.599 37.0051C111.037 35.66 110.803 35.66 110.54 35.5284C111.447 34.8559 113.055 35.4261 112.543 37.0051L110.876 42.1663C109.882 45.1343 112.821 41.8738 113.728 39.0959C114.766 35.9378 114.853 35.8209 114.342 35.5284C115.277 34.8559 116.871 35.4261 116.359 37.0051Z" fill="#FAFAFA"/>
<path d="M125 36.1133C124.167 36.318 124.313 36.508 122.339 42.561C121.9 43.8769 122.134 43.8769 122.383 44.0231C121.593 44.6226 120.321 44.2132 120.278 43.2043C118.874 45.4121 116.111 43.9793 116.754 42.0055L118.26 37.3707C118.757 35.894 119.766 35.2653 121.213 35.2653C121.944 35.2653 122.398 35.6454 122.675 35.9817C123.494 34.8413 124.825 35.1483 125 36.1133ZM122.354 36.5958C122.251 36.3034 122.017 36.0109 121.476 36.0109C120.424 36.0109 120.073 37.8532 118.728 42.0055C118.128 43.9208 119.97 43.4237 120.906 40.982C122.164 37.0636 122.193 37.0052 122.354 36.5958Z" fill="#FAFAFA"/>
<path d="M73.1553 13.7288L72.4974 15.7611C72.1319 16.9015 69.5879 18.8022 67.5263 18.1297C67.0877 19.4748 66.3274 21.2439 67.9796 21.2439C69.1785 21.2439 69.7048 19.3871 69.9095 18.8315C69.9826 18.6999 70.1288 18.5537 70.275 18.5975C70.5821 18.6853 71.4154 19.314 71.2985 19.5479C70.7721 20.6445 69.4563 21.7703 67.2924 21.7703C64.4852 21.7703 64.7045 20.0742 64.9969 19.2262L66.6637 14.109C67.8041 10.6146 73.901 11.4334 73.1553 13.7288ZM70.4651 12.6177C69.0176 12.6177 68.7545 14.3283 67.6872 17.6326C68.4913 17.8811 69.968 17.1062 70.3628 15.7757C71.0353 13.6265 71.5763 12.6177 70.4651 12.6177Z" fill="#FAFAFA"/>
<path d="M83.3892 21.4777C83.0237 21.7555 82.6435 21.7848 82.5412 21.7848C81.7809 21.7848 80.7282 21.3169 81.1815 19.8695L83.0383 14.1381C83.8425 11.7257 81.9271 14.182 80.5235 16.0388L79.2808 19.8695C78.7983 21.3315 79.0615 21.3315 79.3539 21.4777C78.345 22.238 76.5906 21.5947 77.1461 19.8695L78.9884 14.1381C79.7925 11.7257 77.8772 14.182 76.4736 16.0388L75.2308 19.8695C74.7776 21.3315 75.0408 21.3315 75.3039 21.4777C74.3243 22.238 72.5406 21.5947 73.0962 19.8695C75.1139 13.6264 75.1139 13.6703 75.2454 13.2609C75.3185 13.0123 74.8068 13.2024 74.7922 12.9538C74.7922 12.8807 75.9034 11.7842 76.7368 11.7842C78.1404 11.7842 77.4824 12.9977 76.883 14.7961C77.9357 13.3925 79.2515 11.7842 79.8364 11.7842C80.9329 11.7842 81.6493 12.8223 81.1668 14.1381L80.9475 14.7961C81.971 13.3925 83.2869 11.7842 83.9009 11.7842C84.9682 11.7842 85.7139 12.8223 85.2168 14.1381L83.3746 19.8695C82.8629 21.3315 83.126 21.3315 83.3892 21.4777Z" fill="#FAFAFA"/>
<path d="M103.625 20.9809C102.821 21.5657 102.134 21.8143 100.862 21.785C97.7766 21.7412 98.4784 19.4311 98.6247 18.9193C100.379 13.495 100.16 12.2961 103.099 11.7844C103.201 11.7698 103.289 12.4277 103.274 12.4716C103.274 12.4716 102.733 12.8956 102.441 13.8021L100.774 18.9193C100.423 20.0451 100.101 21.1417 101.052 21.1417C102.192 21.1417 102.645 19.4165 102.806 18.9193L104.356 14.1384C105.16 11.6528 101.637 13.8021 103.201 16.8286C103.523 17.4719 102.806 17.9251 102.441 17.0625C101.812 15.5566 102.66 11.7844 105.16 11.7844C106.388 11.7844 106.871 12.9833 106.52 14.1384C104.546 20.1621 104.707 20.2206 103.625 20.9809Z" fill="#FAFAFA"/>
<path d="M78.5791 0C78.5645 0 78.5352 -2.23313e-07 78.5206 0.0146205C78.5206 0.0146205 78.506 0.043862 78.4768 0.0877243C78.4475 0.131587 78.4037 0.20469 78.3452 0.307036C78.2282 0.497105 78.0528 0.760279 77.775 1.08194C77.6288 1.24276 77.4825 1.40359 77.2925 1.59366C77.1024 1.76911 76.8977 1.95918 76.6638 2.13463C76.1959 2.50015 75.6403 2.89491 74.9824 3.26043C74.6607 3.4505 73.2718 3.85988 73.0963 3.90374C65.9906 5.80444 62.2916 3.91836 59.1627 4.13767C58.0077 4.21078 56.2678 4.56167 56.0339 4.83947C55.9023 5.01492 55.5807 5.4243 55.7561 5.65823C55.9316 5.89216 58.1247 5.16113 60.5079 5.58513C61.7799 5.81906 62.9788 6.03837 64.163 6.22844L60.04 18.9046C59.8061 19.7819 59.499 20.5129 58.8411 20.8053C57.7884 21.2732 56.8234 20.4837 56.6772 20.6299C56.1801 21.0685 60.888 23.8172 62.4232 18.9046L66.4293 6.53548C70.7278 6.9741 75.2456 4.15229 75.5819 3.93298C76.2252 3.46512 76.7661 2.99725 77.1901 2.54401C77.6141 2.09077 77.9358 1.65214 78.1405 1.27201C78.3452 0.891865 78.4621 0.58483 78.5352 0.380139C78.5645 0.277794 78.5791 0.19007 78.5937 0.146208C78.6083 0.0877245 78.6083 0.0584832 78.6083 0.0584832C78.6083 0.0292417 78.5937 0.0146208 78.5791 0Z" fill="#FAFAFA"/>
<path d="M89.8958 13.0271C90.0712 12.4569 90.2175 11.7697 89.1794 11.7697C88.346 11.7697 87.2348 12.8663 87.2348 12.9394C87.2494 13.1879 87.7612 12.9979 87.6881 13.2464C87.6881 13.2464 82.8047 28.335 83.024 27.6332C83.0094 27.7063 82.9802 27.7648 82.9509 27.8087C82.5708 28.6128 81.7959 27.8525 81.5327 27.3993C81.4742 27.2677 81.2988 27.3993 81.3427 27.5309C81.6936 28.4812 82.4831 29.3 83.1849 29.3C83.4188 29.3 83.8574 29.1977 84.2668 28.9345C84.6031 28.7152 84.9247 28.3935 85.0709 27.9403L87.2202 21.3609C87.3518 21.551 87.6588 21.7849 88.3168 21.7849C91.8842 21.7849 92.1474 18.6707 93.7703 14.1383C94.5744 11.8428 91.9427 10.7609 89.8958 13.0271ZM91.5187 14.3722C90.7292 16.8431 89.6765 21.127 88.1267 21.127C87.6881 21.127 87.5565 20.7907 87.5126 20.3813L89.4426 14.4746C90.4221 13.071 92.0451 12.7347 91.5187 14.3722Z" fill="#FAFAFA"/>
<path d="M109.107 1.9153L108.932 1.81295C108.8 1.73985 108.639 1.72523 108.479 1.76909L108.215 1.85681C108.128 1.88605 108.011 1.92992 107.879 1.97378L107.821 1.9884C107.704 2.03226 107.572 2.09074 107.426 2.14923C106.783 2.4124 105.788 2.88026 104.619 3.62592C104.049 3.99144 103.464 4.40082 102.894 4.85407C102.323 5.29269 101.738 5.7898 101.168 6.31614C100.072 7.3396 99.0482 8.46539 98.1271 9.67892C97.6739 10.2784 97.2499 10.8778 96.8844 11.4626C96.5042 12.0621 96.168 12.6762 95.8756 13.2756C95.2907 14.4891 94.8813 15.7027 94.6766 16.8723C94.472 18.0127 94.4135 19.1678 94.5304 20.3082C94.5889 20.8492 94.6913 21.4048 94.8375 21.9603C94.896 22.1943 94.9837 22.4575 95.086 22.7645L95.2322 23.1592L95.3931 23.5394C95.4516 23.6564 95.51 23.8172 95.5685 23.9926C95.7293 24.4166 95.8609 24.709 95.9633 24.9284C95.9779 24.9722 96.0071 25.0161 96.0218 25.0453C96.1095 25.3231 95.6709 25.367 95.4077 25.3231C95.32 25.3085 95.3346 25.4108 95.4077 25.4401C95.8463 25.5717 96.3142 25.5717 96.6066 25.4547H96.6212C96.6943 25.4255 96.7382 25.3962 96.7674 25.367C96.782 25.3524 96.7967 25.3377 96.8113 25.3231C96.8551 25.2793 96.8259 25.1915 96.7967 25.0746C96.782 25.0015 96.782 24.9137 96.7528 24.826C96.7528 24.8114 96.7528 24.7822 96.7382 24.7675C95.4662 17.1355 98.4488 10.1029 105.35 4.45931C106.344 3.74289 107.236 3.2604 107.806 2.98261C107.938 2.90951 108.055 2.86564 108.157 2.80716L108.215 2.77792C108.332 2.71944 108.435 2.67557 108.508 2.64633L108.771 2.52937C108.917 2.47088 109.078 2.32468 109.093 2.13461V2.11999L109.107 1.9153Z" fill="#FAFAFA"/>
<path d="M124.071 55.4C123.856 56.1486 123.678 56.7802 123.538 57.2948C123.398 57.8001 123.276 58.2259 123.173 58.5721C123.08 58.9183 122.995 59.1943 122.921 59.4002C122.855 59.6061 122.79 59.7745 122.724 59.9055C122.659 60.0271 122.584 60.1301 122.499 60.2143C122.425 60.2892 122.331 60.3734 122.219 60.4669C121.957 60.6822 121.699 60.8412 121.447 60.9442C121.194 61.0377 120.862 61.0752 120.45 61.0564C120.123 61.0564 119.856 61.0097 119.65 60.9161C119.444 60.8225 119.285 60.7102 119.173 60.5792C119.061 60.4389 118.986 60.2892 118.948 60.1301C118.92 59.9616 118.906 59.8026 118.906 59.6529C118.906 59.4938 118.92 59.3534 118.948 59.2318C118.976 59.1008 119 59.0025 119.019 58.937C119.299 57.9358 119.519 57.117 119.678 56.4807C119.837 55.8351 120.001 55.3204 120.169 54.9368C120.338 54.5531 120.548 54.2677 120.801 54.0806C121.054 53.8934 121.414 53.7531 121.882 53.6595C121.901 53.6595 121.915 53.6829 121.924 53.7297C121.943 53.7765 121.957 53.8326 121.966 53.8981C121.975 53.9636 121.98 54.0245 121.98 54.0806C121.989 54.1274 121.994 54.1555 121.994 54.1648C121.929 54.2303 121.863 54.3098 121.798 54.4034C121.742 54.4876 121.681 54.5906 121.615 54.7122C121.559 54.8339 121.508 54.9789 121.461 55.1473L120.394 58.937C120.338 59.1429 120.286 59.3441 120.24 59.5406C120.193 59.7371 120.169 59.9149 120.169 60.0739C120.169 60.2236 120.198 60.3453 120.254 60.4389C120.31 60.5324 120.417 60.5792 120.577 60.5792C120.754 60.5792 120.909 60.5137 121.04 60.3827C121.171 60.2424 121.278 60.0833 121.363 59.9055C121.456 59.7184 121.526 59.5359 121.573 59.3581C121.629 59.171 121.671 59.0306 121.699 58.937L122.696 55.4C122.78 55.0912 122.799 54.876 122.752 54.7543C122.705 54.6327 122.626 54.5812 122.513 54.5999C122.401 54.6186 122.275 54.7075 122.135 54.8666C122.004 55.0163 121.896 55.2175 121.812 55.4701C121.727 55.7228 121.685 56.0129 121.685 56.3404C121.695 56.6679 121.784 57.0188 121.952 57.3931C122.008 57.5147 122.022 57.6223 121.994 57.7159C121.975 57.8095 121.933 57.8703 121.868 57.8984C121.812 57.9264 121.742 57.9171 121.657 57.8703C121.582 57.8235 121.517 57.7206 121.461 57.5615C121.395 57.3744 121.353 57.1498 121.334 56.8878C121.325 56.6258 121.339 56.3497 121.377 56.0597C121.414 55.7696 121.48 55.4842 121.573 55.2035C121.676 54.9134 121.802 54.6561 121.952 54.4315C122.102 54.1976 122.28 54.0104 122.485 53.8701C122.691 53.7297 122.93 53.6595 123.201 53.6595C123.398 53.6595 123.561 53.711 123.692 53.8139C123.833 53.9168 123.94 54.0525 124.015 54.221C124.09 54.38 124.132 54.5625 124.142 54.7684C124.151 54.9742 124.128 55.1848 124.071 55.4Z" fill="#FAFAFA"/>
<path d="M119.037 56.0877C119.093 56.1158 119.112 56.1626 119.093 56.2281C119.084 56.2936 119.065 56.3451 119.037 56.3825C118.934 56.5228 118.817 56.6726 118.686 56.8316C118.555 56.9814 118.415 57.1264 118.265 57.2667C118.125 57.3978 117.975 57.51 117.816 57.6036C117.666 57.6972 117.512 57.7533 117.353 57.772C117.128 57.8001 116.983 57.7299 116.918 57.5615C116.852 57.3837 116.833 57.1685 116.861 56.9159C116.889 56.6632 116.941 56.3965 117.016 56.1158C117.1 55.8351 117.17 55.5965 117.226 55.4C117.311 55.0912 117.348 54.8853 117.339 54.7824C117.329 54.6701 117.282 54.6374 117.198 54.6841C117.114 54.7309 117.002 54.8385 116.861 55.007C116.73 55.166 116.585 55.3579 116.426 55.5824C116.267 55.807 116.099 56.0503 115.921 56.3123C115.753 56.5743 115.593 56.8176 115.444 57.0422L114.714 59.6388C114.639 59.9102 114.592 60.1207 114.574 60.2704C114.555 60.4108 114.55 60.5184 114.559 60.5933C114.578 60.6681 114.602 60.7196 114.63 60.7477C114.667 60.7757 114.709 60.8038 114.756 60.8319C114.597 60.9722 114.414 61.0471 114.209 61.0564C114.012 61.0752 113.834 61.0331 113.675 60.9301C113.516 60.8178 113.399 60.6541 113.324 60.4389C113.249 60.2236 113.254 59.957 113.338 59.6388C113.554 58.8715 113.736 58.2259 113.886 57.7019C114.035 57.1685 114.157 56.7287 114.251 56.3825C114.344 56.0363 114.419 55.7649 114.475 55.5684C114.531 55.3719 114.574 55.2222 114.602 55.1193C114.639 55.0163 114.662 54.9415 114.672 54.8947C114.681 54.8479 114.695 54.8011 114.714 54.7543C114.723 54.7075 114.714 54.6795 114.686 54.6701C114.658 54.6607 114.625 54.6514 114.588 54.642C114.55 54.6327 114.513 54.6233 114.475 54.614C114.438 54.6046 114.419 54.5765 114.419 54.5297C114.419 54.5204 114.457 54.4689 114.531 54.3753C114.616 54.2818 114.719 54.1835 114.84 54.0806C114.962 53.9683 115.098 53.8701 115.247 53.7858C115.397 53.7016 115.537 53.6595 115.668 53.6595C115.893 53.6595 116.043 53.7157 116.117 53.8279C116.192 53.9309 116.216 54.0853 116.188 54.2911C116.169 54.497 116.108 54.759 116.005 55.0771C115.912 55.3859 115.809 55.7415 115.696 56.1439C115.865 55.8725 116.047 55.5918 116.244 55.3017C116.44 55.0023 116.632 54.7309 116.819 54.4876C117.016 54.2443 117.194 54.0478 117.353 53.8981C117.521 53.7391 117.657 53.6595 117.76 53.6595C117.928 53.6595 118.083 53.7063 118.223 53.7999C118.363 53.8841 118.476 54.0057 118.56 54.1648C118.644 54.3239 118.691 54.511 118.7 54.7262C118.719 54.9321 118.686 55.1567 118.602 55.4C118.564 55.5403 118.518 55.6947 118.461 55.8632C118.415 56.0222 118.387 56.1579 118.377 56.2702C118.368 56.3825 118.396 56.4433 118.461 56.4527C118.527 56.462 118.658 56.3778 118.854 56.2C118.901 56.1626 118.934 56.1298 118.953 56.1018C118.981 56.0737 119.009 56.069 119.037 56.0877Z" fill="#FAFAFA"/>
<path d="M111.853 59.6387C111.778 59.9101 111.731 60.1206 111.712 60.2703C111.694 60.4107 111.689 60.5183 111.698 60.5931C111.717 60.668 111.741 60.7195 111.769 60.7475C111.806 60.7756 111.848 60.8037 111.895 60.8317C111.736 60.9627 111.553 61.0376 111.347 61.0563C111.151 61.0657 110.973 61.0236 110.814 60.93C110.655 60.8271 110.533 60.668 110.449 60.4528C110.374 60.2376 110.384 59.9662 110.477 59.6387C110.692 58.8714 110.875 58.2257 111.025 57.7017C111.174 57.1684 111.296 56.7286 111.39 56.3824C111.483 56.0361 111.558 55.7695 111.614 55.5823C111.67 55.3858 111.712 55.2361 111.741 55.1332C111.778 55.0209 111.801 54.9413 111.811 54.8945C111.82 54.8478 111.834 54.801 111.853 54.7542C111.862 54.7074 111.853 54.6793 111.825 54.67C111.797 54.6606 111.764 54.6513 111.726 54.6419C111.689 54.6325 111.652 54.6232 111.614 54.6138C111.577 54.6045 111.558 54.5764 111.558 54.5296C111.558 54.5203 111.595 54.4688 111.67 54.3752C111.755 54.2816 111.857 54.1834 111.979 54.0805C112.101 53.9682 112.236 53.8699 112.386 53.7857C112.536 53.7015 112.676 53.6594 112.807 53.6594C113.041 53.6594 113.196 53.7155 113.27 53.8278C113.345 53.9307 113.341 54.1834 113.256 54.5858C113.182 54.9881 113.022 55.587 112.779 56.3824C112.545 57.1777 112.236 58.2632 111.853 59.6387ZM112.527 51.8768C112.583 51.5961 112.695 51.3856 112.863 51.2452C113.032 51.1048 113.2 51.0347 113.369 51.0347C113.537 51.0347 113.677 51.1048 113.79 51.2452C113.902 51.3856 113.93 51.5961 113.874 51.8768C113.846 51.9891 113.799 52.1061 113.734 52.2277C113.677 52.3494 113.607 52.4617 113.523 52.5646C113.448 52.6582 113.364 52.7377 113.27 52.8032C113.177 52.8593 113.083 52.8874 112.99 52.8874C112.896 52.8874 112.812 52.8593 112.737 52.8032C112.672 52.7377 112.615 52.6582 112.569 52.5646C112.531 52.4617 112.508 52.3494 112.498 52.2277C112.489 52.1061 112.498 51.9891 112.527 51.8768Z" fill="#FAFAFA"/>
<path d="M106.254 55.3858C106.376 54.9554 106.572 54.6092 106.844 54.3472C107.124 54.0852 107.429 53.898 107.756 53.7857C108.093 53.6734 108.434 53.6267 108.781 53.6454C109.127 53.6547 109.431 53.7249 109.693 53.8559C109.964 53.9776 110.17 54.146 110.311 54.3612C110.451 54.5764 110.484 54.8244 110.409 55.1051L109.988 56.6069C109.932 56.8222 109.796 57.0561 109.581 57.3087C109.365 57.5614 109.103 57.786 108.795 57.9825C108.495 58.179 108.168 58.324 107.812 58.4176C107.466 58.5018 107.129 58.4831 106.802 58.3614C106.727 58.6141 106.652 58.8761 106.577 59.1475C106.502 59.4188 106.455 59.6668 106.437 59.8914C106.427 60.1159 106.465 60.3031 106.549 60.4528C106.643 60.5932 106.825 60.6633 107.096 60.6633C107.293 60.6633 107.461 60.5885 107.602 60.4388C107.742 60.289 107.859 60.1159 107.953 59.9194C108.055 59.7229 108.135 59.5264 108.191 59.3299C108.257 59.1334 108.303 58.9837 108.332 58.8808C108.35 58.834 108.383 58.7919 108.43 58.7544C108.477 58.7077 108.523 58.6936 108.57 58.7123C108.617 58.7311 108.682 58.7732 108.767 58.8387C108.851 58.8948 108.93 58.9603 109.005 59.0352C109.08 59.1007 109.141 59.1708 109.188 59.2457C109.234 59.3206 109.249 59.3767 109.23 59.4141C109.146 59.62 109.029 59.8212 108.879 60.0177C108.729 60.2142 108.547 60.392 108.332 60.551C108.126 60.7008 107.882 60.8224 107.602 60.916C107.321 61.0095 107.007 61.0563 106.661 61.0563C106.212 61.0563 105.875 60.9908 105.651 60.8598C105.426 60.7195 105.272 60.551 105.187 60.3545C105.103 60.158 105.07 59.9522 105.089 59.737C105.108 59.5217 105.141 59.3346 105.187 59.1755L106.254 55.3858ZM108.612 56.6069C108.725 56.2139 108.823 55.8724 108.907 55.5823C108.991 55.2829 109.047 55.0396 109.075 54.8525C109.103 54.656 109.089 54.5109 109.033 54.4173C108.977 54.3238 108.86 54.277 108.682 54.277C108.448 54.277 108.257 54.3565 108.107 54.5156C107.957 54.6747 107.822 54.9086 107.7 55.2174C107.578 55.5262 107.457 55.9145 107.335 56.3824C107.213 56.8409 107.068 57.3742 106.9 57.9825C107.031 58.0293 107.181 58.0293 107.349 57.9825C107.517 57.9357 107.686 57.8515 107.854 57.7298C108.023 57.6082 108.172 57.4538 108.303 57.2666C108.444 57.0701 108.547 56.8502 108.612 56.6069Z" fill="#FAFAFA"/>
<path d="M104.44 53.0978C104.805 53.0791 105.044 53.1773 105.156 53.3926C105.268 53.6078 105.292 53.9025 105.226 54.2768C105.17 54.6417 105.039 55.0628 104.833 55.54C104.627 56.0173 104.379 56.5085 104.089 57.0138C103.809 57.5191 103.504 58.015 103.177 58.5016C102.859 58.9788 102.55 59.4093 102.251 59.7929C101.96 60.1672 101.694 60.4713 101.45 60.7053C101.217 60.9392 101.048 61.0562 100.945 61.0562C100.758 61.0562 100.576 61.0094 100.398 60.9158C100.229 60.8222 100.075 60.6959 99.9346 60.5368C99.8036 60.3778 99.6866 60.1953 99.5837 59.9894C99.4901 59.7742 99.4293 59.545 99.4012 59.3017C99.3919 59.1987 99.4059 59.0397 99.4434 58.8245C99.4901 58.6092 99.5463 58.3659 99.6118 58.0946C99.6866 57.8139 99.7662 57.5238 99.8504 57.2244C99.944 56.9249 100.028 56.6395 100.103 56.3682C100.178 56.0874 100.239 55.8348 100.286 55.6102C100.342 55.3857 100.37 55.2125 100.37 55.0909C100.37 54.8383 100.356 54.6698 100.328 54.5856C100.318 54.5388 100.318 54.4967 100.328 54.4593C100.337 54.4125 100.36 54.3797 100.398 54.361C100.819 54.0242 101.142 53.8136 101.366 53.7294C101.6 53.6452 101.764 53.6592 101.858 53.7715C101.951 53.8745 101.984 54.0569 101.956 54.3189C101.937 54.5809 101.881 54.8897 101.787 55.2453C101.703 55.5915 101.596 55.9658 101.465 56.3682C101.334 56.7705 101.203 57.1635 101.072 57.5472C100.95 57.9308 100.842 58.2958 100.749 58.642C100.655 58.9788 100.604 59.2549 100.594 59.4701C100.566 59.8444 100.622 60.069 100.763 60.1438C100.903 60.2093 101.057 60.1438 101.226 59.9473C101.31 59.8444 101.465 59.6292 101.689 59.3017C101.923 58.9648 102.171 58.5765 102.433 58.1367C102.695 57.6875 102.943 57.2197 103.177 56.7331C103.42 56.2465 103.593 55.8021 103.696 55.3997C103.762 55.1283 103.785 54.9178 103.766 54.7681C103.757 54.6184 103.72 54.5107 103.654 54.4452C103.598 54.3704 103.518 54.3283 103.416 54.3189C103.322 54.3002 103.228 54.3002 103.135 54.3189C103.051 54.3376 102.971 54.361 102.896 54.3891C102.821 54.4078 102.779 54.4125 102.77 54.4031C102.742 54.3938 102.756 54.3236 102.812 54.1926C102.868 54.0522 102.962 53.9072 103.093 53.7575C103.233 53.5984 103.411 53.4534 103.626 53.3224C103.851 53.1914 104.122 53.1165 104.44 53.0978Z" fill="#FAFAFA"/>
<path d="M100.974 47.8484C101.096 47.8484 101.189 47.8811 101.255 47.9466C101.33 48.0121 101.376 48.0916 101.395 48.1852C101.423 48.2788 101.423 48.377 101.395 48.48C101.376 48.5735 101.339 48.6484 101.283 48.7045C101.199 48.7888 101.096 48.8589 100.974 48.9151C100.852 48.9619 100.721 49.0554 100.581 49.1958C100.45 49.3362 100.31 49.5467 100.16 49.8274C100.02 50.1081 99.8839 50.5152 99.7529 51.0485L98.7143 54.7681C98.864 54.7213 98.981 54.6745 99.0652 54.6277C99.1587 54.5809 99.2149 54.5482 99.2336 54.5295C99.2617 54.5014 99.2897 54.5014 99.3178 54.5295C99.3552 54.5575 99.388 54.6043 99.4161 54.6698C99.4441 54.726 99.4582 54.7961 99.4582 54.8804C99.4675 54.9646 99.4582 55.0488 99.4301 55.133C99.3552 55.3669 99.2664 55.5541 99.1634 55.6944C99.0698 55.8254 98.9716 55.9284 98.8687 56.0032C98.7751 56.0781 98.6768 56.1296 98.5739 56.1576C98.4803 56.1857 98.3914 56.2091 98.3072 56.2278L97.3949 59.4561C97.292 59.7836 97.292 60.0643 97.3949 60.2982C97.4978 60.5228 97.6663 60.6819 97.9002 60.7754C97.7037 60.9626 97.4698 61.0655 97.1984 61.0842C96.927 61.103 96.6791 61.0562 96.4545 60.9439C96.2299 60.8222 96.0521 60.6351 95.9211 60.3824C95.7995 60.1298 95.7901 59.821 95.893 59.4561L96.7773 56.3261C96.4685 56.298 96.2018 56.2559 95.9773 56.1997C95.7527 56.1342 95.5328 56.0594 95.3176 55.9752C95.1117 55.8909 94.8918 55.7974 94.6579 55.6944C94.424 55.5822 94.1432 55.4699 93.8157 55.3576C93.3011 56.1717 92.8519 56.8781 92.4683 57.477C92.0846 58.0759 91.7478 58.5858 91.4577 59.0069C91.1676 59.428 90.9056 59.7742 90.6717 60.0456C90.4471 60.3076 90.2272 60.5134 90.012 60.6632C89.7968 60.8129 89.5722 60.9158 89.3383 60.9719C89.1043 61.0281 88.8377 61.0562 88.5382 61.0562C88.3137 61.0562 88.1078 61.0141 87.9206 60.9298C87.7429 60.8456 87.5885 60.738 87.4575 60.607C87.3358 60.476 87.2376 60.3263 87.1627 60.1579C87.0972 59.9801 87.0645 59.8023 87.0645 59.6245C87.0645 59.428 87.0925 59.2409 87.1487 59.0631C87.2048 58.8853 87.2656 58.7262 87.3311 58.5858C87.406 58.4455 87.4762 58.3332 87.5417 58.249C87.6165 58.1648 87.668 58.1227 87.6961 58.1227C87.7241 58.1227 87.7288 58.1741 87.7101 58.2771C87.7007 58.3706 87.6961 58.4876 87.6961 58.6279C87.6961 58.7683 87.7148 58.918 87.7522 59.0771C87.799 59.2362 87.8926 59.3859 88.0329 59.5262C88.3417 59.835 88.6645 59.9146 89.0014 59.7649C89.3476 59.6058 89.7126 59.3017 90.0962 58.8525C90.4892 58.394 90.9009 57.8326 91.3314 57.1682C91.7618 56.5038 92.2203 55.8114 92.7069 55.0909C92.6227 55.0815 92.5244 55.0769 92.4121 55.0769C92.3092 55.0769 92.1922 55.0956 92.0612 55.133C91.9396 55.1704 91.7992 55.2313 91.6402 55.3155C91.4811 55.3903 91.3127 55.5026 91.1349 55.6523C91.0881 55.6898 91.0366 55.6898 90.9805 55.6523C90.9243 55.6149 90.9056 55.5634 90.9243 55.4979C91.0834 55.0114 91.3594 54.6511 91.7525 54.4172C92.1455 54.1832 92.6648 54.1131 93.3104 54.2066C94.059 53.1118 94.6766 52.1948 95.1632 51.4556C95.6591 50.707 96.0849 50.0988 96.4405 49.6309C96.8054 49.1631 97.1282 48.8075 97.4089 48.5642C97.6896 48.3115 97.9891 48.1338 98.3072 48.0308C98.6254 47.9279 98.9903 47.8718 99.402 47.8624C99.8231 47.853 100.347 47.8484 100.974 47.8484ZM97.1422 55.0207C97.451 53.9259 97.699 53.0229 97.8862 52.3118C98.0827 51.5913 98.2511 51.0018 98.3914 50.5433C98.5412 50.0847 98.6768 49.7245 98.7985 49.4625C98.9201 49.2005 99.0652 48.9712 99.2336 48.7747C98.878 48.6999 98.5412 48.7747 98.223 48.9993C97.9049 49.2239 97.5633 49.5841 97.1984 50.0801C96.8335 50.5666 96.4264 51.1796 95.9773 51.9188C95.5375 52.658 95.0135 53.5048 94.4052 54.4593C94.6953 54.5435 94.9526 54.623 95.1772 54.6979C95.4111 54.7634 95.631 54.8195 95.8369 54.8663C96.0521 54.9131 96.2627 54.9505 96.4685 54.9786C96.6744 55.0067 96.899 55.0207 97.1422 55.0207Z" fill="#FAFAFA"/>
<path d="M65.5171 24.4546C62.7099 24.4692 59.9173 24.4984 57.1101 24.5715C56.2621 24.5861 55.7358 25.0248 55.6481 25.785C55.4287 27.6126 55.1509 29.4256 54.9755 31.2532C54.8293 32.7738 54.4053 34.2212 53.6304 35.5956C53.2649 36.2681 52.7239 36.5021 51.9929 36.1219C51.1741 35.6979 50.3115 35.2593 49.6682 34.6745C48.1037 33.227 46.6417 31.6918 45.1503 30.1859C45.1211 30.2005 45.0919 30.2151 45.0626 30.2298C45.1065 30.3467 45.1503 30.4637 45.2235 30.566C46.8756 32.92 48.9371 34.9523 51.5396 36.5605C52.8847 37.3793 53.645 37.2477 54.186 35.9319C54.6392 34.8061 54.9463 33.6072 55.1363 32.4229C55.4726 30.3467 55.648 28.2413 55.9258 26.1652C56.0136 25.478 56.5399 25.0394 57.3587 24.9955C58.5283 24.9224 59.7126 24.9078 60.8969 24.8639C62.0081 24.8201 63.1339 24.7616 64.2451 24.7324C64.7129 24.7177 65.1808 24.7762 65.6486 24.8055C65.6779 24.9078 65.7071 25.0101 65.7364 25.1125C65.4147 25.2587 65.1077 25.478 64.7714 25.5219C63.3239 25.6973 61.8765 25.8289 60.4144 25.9313C58.4991 26.0628 57.8704 26.5892 57.8412 28.256C57.8265 29.411 57.8704 30.5807 57.9874 31.7211C58.3383 34.9523 57.4464 36.7799 56.5107 39.8648C56.3206 40.4935 55.6481 41.8094 55.0632 41.7802C54.7416 41.7655 54.376 41.6486 54.1129 41.4877C51.5542 39.9964 49.0248 38.4905 46.4808 36.9992C46.2615 36.8676 46.0422 36.7506 45.8375 36.619C45.779 36.6629 45.6475 36.7506 45.6475 36.7506C45.6475 36.7506 51.9344 40.8006 53.4403 41.6486C55.1509 42.6135 56.2036 42.3796 57.2125 40.4935C57.695 39.587 57.8265 38.5197 57.9289 37.5109C58.1482 35.0985 58.2505 32.686 58.3968 30.259C58.4406 29.5572 58.4406 28.8554 58.4699 28.1536C58.5137 27.0424 58.967 26.6184 60.2536 26.4576C61.6133 26.2968 62.973 26.1506 64.3182 25.9459C64.8299 25.8728 65.3416 25.6973 65.7949 25.478C66.0288 25.361 66.1165 25.0101 66.2627 24.7616C65.9849 24.63 65.751 24.4546 65.5171 24.4546Z" fill="#FAFAFA"/>
<path d="M51.9787 70.5034L52.5361 70.5054C52.3828 69.7905 52.2071 69.0612 52.0078 68.317V68.2878C51.5692 67.1474 51.1744 66.2555 50.8381 65.4806C49.9463 63.4483 49.4638 62.3225 49.4638 59.8955C49.4638 58.5065 50.0779 56.9713 50.7797 55.173C51.7446 52.7313 52.9435 49.6755 52.9435 45.9326C52.9435 39.4264 36.9338 34.777 36.2612 34.5723L35.4717 34.3384L35.9396 34.9378C35.9981 35.0256 42.4604 43.2132 42.4604 52.2196C42.4604 57.3807 39.9164 60.4803 37.6648 63.2144C35.9396 65.3051 34.4629 67.1035 34.4629 69.3843C34.4629 69.7382 34.4978 70.0908 34.5628 70.4427L35.1157 70.4447C35.0431 70.0856 35.0039 69.7275 35.0039 69.3697C35.0039 67.2351 36.4367 65.4952 38.1035 63.4775C40.3989 60.685 43.016 57.5269 43.016 52.2049C43.016 44.4706 38.3374 37.3356 36.8461 35.2595C40.0773 36.2829 48.8058 40.2744 50.4726 45.4502C51.7008 49.2954 51.2475 52.4681 50.2533 55.0121C49.5369 56.8397 48.9082 58.4334 48.9082 59.8955C48.9082 62.4102 49.4053 63.5653 50.3264 65.656C50.6627 66.4309 51.0428 67.3082 51.4814 68.4486C51.6679 69.1467 51.8334 69.8315 51.9787 70.5034Z" fill="#FAFAFA"/>
<path d="M30.6464 56.8688C30.8218 56.898 30.9534 56.9127 31.0704 56.9127C31.3043 56.9273 31.4213 56.9419 31.4213 56.9419C31.4798 56.9419 31.5383 56.9127 31.5675 56.8542C31.5967 56.7957 31.5529 56.7226 31.4944 56.708C31.4944 56.708 31.3774 56.6787 31.1727 56.6202C31.0704 56.591 30.9388 56.5618 30.778 56.5033C30.6172 56.4594 30.4417 56.4009 30.2516 56.3278C29.4621 56.0354 28.3509 55.5091 27.2105 54.5295C26.6403 54.047 26.0701 53.4622 25.5291 52.7604C24.9882 52.0586 24.4764 51.2544 23.9939 50.3626C23.0582 48.5788 22.2833 46.4296 21.7862 44.0318C21.5377 42.9206 21.3622 41.7655 21.2452 40.552C21.4792 41.2246 21.7424 41.8825 22.0348 42.5258C22.7804 44.1634 23.7308 45.6985 24.8566 47.0436C25.4268 47.7308 26.0262 48.3595 26.6403 48.9443C27.269 49.5292 27.9269 50.0555 28.5702 50.538C29.8861 51.503 31.2458 52.2486 32.5325 52.7457C33.1758 52.9943 33.8045 53.1844 34.3893 53.3013C34.9741 53.4183 35.5297 53.4768 36.0415 53.4914C37.0357 53.506 37.7959 53.3013 38.2784 53.1259C38.3954 53.082 38.4977 53.0382 38.5855 52.9943C38.6732 52.9504 38.7463 52.9212 38.8048 52.8919C38.9217 52.8335 38.9802 52.8042 38.9802 52.8042C39.0095 52.7896 39.0241 52.7604 39.0095 52.7165C38.9948 52.6873 38.951 52.658 38.9217 52.6726C38.9217 52.6726 38.8633 52.6873 38.7317 52.7311C38.6732 52.7457 38.6001 52.775 38.4977 52.7896C38.41 52.8188 38.3077 52.8335 38.1761 52.8627C37.6936 52.965 36.9626 53.0382 36.0415 52.9212C35.5882 52.8627 35.0911 52.7604 34.5501 52.5849C34.0238 52.4241 33.4682 52.1901 32.898 51.9124C31.7576 51.3568 30.5587 50.5819 29.3744 49.6023C28.2047 48.6519 27.0643 47.5115 26.0262 46.2103C25.0028 44.9236 24.0963 43.5054 23.3214 41.9849C22.5611 40.4935 21.9617 38.8999 21.523 37.277C21.3622 36.6921 21.2306 36.0927 21.099 35.4932C21.1137 35.2155 21.1283 34.9523 21.1575 34.6745C21.3184 35.2301 21.5084 35.771 21.7424 36.2974C22.1079 37.1015 22.5757 37.8618 23.1313 38.5344C23.4091 38.8706 23.7015 39.1923 24.0086 39.4701C24.3156 39.7625 24.6373 40.0257 24.9589 40.2596C25.6169 40.7421 26.2748 41.1076 26.9181 41.3562C27.2398 41.4731 27.5468 41.5755 27.8392 41.634C28.1316 41.6924 28.4094 41.7217 28.658 41.7217C29.1551 41.7217 29.5352 41.634 29.7691 41.5462C29.8276 41.5316 29.8861 41.5024 29.93 41.4878C29.9738 41.4731 30.0031 41.4585 30.0323 41.4439C30.0908 41.4147 30.12 41.4 30.12 41.4C30.1347 41.3854 30.1347 41.3708 30.1347 41.3562C30.1347 41.3415 30.1054 41.3269 30.0908 41.3415C30.0908 41.3415 30.0616 41.3562 30.0031 41.3708C29.9738 41.3854 29.93 41.3854 29.8861 41.4C29.8422 41.4146 29.7838 41.4293 29.7253 41.4293C29.4914 41.4731 29.1258 41.517 28.6726 41.4585C28.4533 41.4293 28.2047 41.3708 27.9416 41.2977C27.6784 41.21 27.4006 41.1076 27.1228 40.9614C26.5672 40.6836 25.9677 40.3035 25.3829 39.821C24.7981 39.3531 24.2425 38.7829 23.7308 38.1396C23.2337 37.5109 22.7804 36.8091 22.3857 36.0488C22.0055 35.3032 21.7131 34.5283 21.4938 33.7241C21.4207 33.4756 21.3622 33.2124 21.3183 32.9639C21.523 31.3263 21.8301 29.6742 22.2395 28.0074C22.7658 25.9459 23.4676 23.8844 24.3302 21.8521C24.301 22.3931 24.301 22.9486 24.3448 23.4896C24.418 24.3522 24.608 25.2002 24.9151 25.9751C25.0613 26.3699 25.2367 26.75 25.4414 27.1009C25.6461 27.4518 25.8508 27.7881 26.0847 28.0951C26.5526 28.7238 27.0497 29.2356 27.576 29.6449C27.8392 29.8496 28.1024 30.0105 28.3656 30.142C28.6287 30.2736 28.8773 30.376 29.1112 30.4345C29.5791 30.566 29.9738 30.5661 30.237 30.5514C30.2955 30.5514 30.354 30.5368 30.4125 30.5368C30.4563 30.5368 30.5002 30.5222 30.5294 30.5222C30.5879 30.5076 30.6318 30.5076 30.6318 30.5076C30.6464 30.5076 30.661 30.4929 30.661 30.4783C30.661 30.4637 30.6464 30.4491 30.6318 30.4491C30.6318 30.4491 30.6025 30.4491 30.5294 30.4491C30.5002 30.4491 30.4563 30.4491 30.4125 30.4491C30.3686 30.4491 30.3101 30.4491 30.2516 30.4491C30.0031 30.4345 29.6522 30.376 29.2428 30.2005C29.0381 30.1128 28.8188 29.9958 28.5995 29.8496C28.3802 29.7034 28.1609 29.528 27.9269 29.3233C27.4883 28.9139 27.0497 28.4022 26.6549 27.7881C26.2602 27.1887 25.9239 26.5015 25.6461 25.7558C25.3829 25.0248 25.1928 24.2353 25.0905 23.4165C24.9882 22.6124 24.9735 21.7936 25.0466 20.9602C25.0759 20.7117 25.1051 20.4485 25.1344 20.1999C25.1636 20.1415 25.1782 20.0976 25.2075 20.0391C25.1782 20.3461 25.1636 20.6386 25.1636 20.9456C25.1636 21.8082 25.2513 22.6708 25.456 23.5042C25.6461 24.3522 25.9678 25.171 26.3771 25.9167C26.5818 26.2968 26.8158 26.6477 27.0643 26.9693C27.3129 27.3056 27.576 27.6127 27.8392 27.8905C28.3802 28.4607 28.965 28.9285 29.5498 29.2648C29.8422 29.4403 30.12 29.5718 30.3978 29.6742C30.6756 29.7765 30.9388 29.8496 31.1727 29.8935C31.6552 29.9812 32.05 29.9374 32.2985 29.8789C32.357 29.8643 32.4155 29.8496 32.4594 29.835C32.5032 29.8204 32.5471 29.8058 32.5763 29.8058C32.6348 29.7912 32.6641 29.7765 32.6641 29.7765C32.6787 29.7765 32.6933 29.7619 32.6933 29.7327C32.6933 29.718 32.6787 29.7034 32.6494 29.7034C32.6494 29.7034 32.6202 29.7034 32.5471 29.718C32.5178 29.718 32.474 29.7327 32.4301 29.7327C32.3863 29.7327 32.3278 29.7473 32.2693 29.7473C32.0207 29.7619 31.6552 29.7473 31.2312 29.6157C31.0119 29.5572 30.778 29.4695 30.544 29.3379C30.3101 29.2209 30.0616 29.0601 29.7984 28.8847C29.3013 28.5191 28.7896 28.0659 28.3217 27.4957C27.8392 26.9401 27.4006 26.2968 27.0351 25.595C26.6695 24.8932 26.3625 24.1329 26.1432 23.3288C25.9239 22.5393 25.7923 21.7205 25.7338 20.9017C25.7046 20.4924 25.7046 20.0976 25.7046 19.6882C25.7046 19.4835 25.7192 19.2934 25.7338 19.0888L25.7484 18.9279C26.2602 17.9191 26.8011 16.9249 27.3713 15.9453C27.7369 15.3166 28.117 14.7025 28.4971 14.0885L29.0966 13.182L29.7253 12.3047C32.6933 8.94196 35.5882 7.04126 37.5474 6.69036C39.6674 6.31022 41.3049 7.02664 42.5915 8.66416C43.5565 7.72843 44.6238 7.15822 45.9105 8.21092C46.8023 8.92734 47.1825 10.0824 46.7877 11.0181C46.3345 12.0708 45.4865 12.524 44.156 12.1585C44.1998 12.3047 44.1998 12.3925 44.2291 12.3925C45.6034 12.7287 46.4368 13.489 46.9778 14.6294C47.1678 15.0242 47.7527 15.3166 48.2059 15.5798C48.6884 15.8576 48.8638 16.1354 48.4545 16.5594C48.0451 16.9687 48.1913 17.3635 48.3521 17.8314C48.5276 18.3285 48.4691 18.8987 48.513 19.425C48.5422 19.6882 48.5568 19.9514 48.6153 20.1999C48.7907 21.0041 48.4398 21.4573 47.4895 21.5304C46.9047 21.5743 46.3052 21.5304 45.7204 21.545C44.9309 21.5743 44.3607 21.8813 44.0244 22.51C43.9367 22.6855 43.8489 22.8609 43.7758 23.0364C42.9132 24.8786 42.2407 26.4722 41.3926 28.2706C42.2407 28.4314 42.7378 29.0894 43.4688 29.2209C42.1237 28.139 42.2553 27.8905 42.9278 26.1944C43.3518 25.1271 43.7758 24.0598 44.1998 22.9925C44.6092 21.9983 45.0771 21.7351 46.3052 21.8228C46.6415 21.8521 46.9924 21.8813 47.3287 21.8813C48.4252 21.8521 49.0685 21.3404 48.9954 20.4192C48.9223 19.4104 49.4779 18.3431 48.6299 17.3781C48.5276 17.2612 48.6445 16.881 48.7907 16.7202C49.4194 16.033 49.0685 15.5944 48.3521 15.2289C48.1182 15.1119 47.8989 14.9511 47.6796 14.8195C48.0158 14.3955 48.3229 14.0007 48.6445 13.606C48.5714 13.5329 48.4837 13.4744 48.4106 13.4013C48.0597 13.5475 47.7234 13.6937 47.3287 13.8545C46.6415 13.2112 46.9193 12.5679 47.2556 11.8661C47.5918 11.1497 47.972 10.3894 47.9574 9.65837C47.9281 7.75767 45.9689 6.55877 43.6881 6.9974C42.7524 7.17284 42.0213 7.04126 41.2172 6.6465C39.0241 5.56456 36.3777 5.85698 34.2285 7.31905C33.6729 7.69919 33.0734 8.00623 32.474 8.3425C32.474 8.3425 31.5675 8.81037 31.1727 9.20513C31.0558 9.29285 30.8803 9.51216 30.8803 9.51216C30.1493 10.2578 29.4329 11.0181 28.7311 11.8076L28 12.6556L27.2836 13.5183C26.8158 14.1177 26.3479 14.7172 25.8946 15.3166C24.9882 16.5594 24.1548 17.8314 23.4091 19.1619C21.8886 21.8667 20.6604 24.7031 19.7978 27.598C18.9059 30.5368 18.4527 33.5341 18.4234 36.3997C18.4088 37.8472 18.4965 39.28 18.6866 40.6398C18.8767 42.0141 19.1691 43.33 19.52 44.5874C20.2364 47.1021 21.2452 49.3391 22.4588 51.1667C23.0728 52.0878 23.7162 52.8919 24.418 53.5791C25.1051 54.2663 25.8069 54.8365 26.5087 55.2897C27.8977 56.1962 29.1843 56.591 30.0762 56.7664C30.2663 56.8249 30.4709 56.8395 30.6464 56.8688Z" fill="#FAFAFA"/>
</svg>
